<?xml version="1.0" encoding="UTF-8"?>
<svg width="83px" height="36px" viewBox="0 0 83 36" version="1.1" xmlns="http://www.w3.org/2000/svg" xmlns:xlink="http://www.w3.org/1999/xlink">
    <!-- Generator: Sketch 51.1 (57501) - http://www.bohemiancoding.com/sketch -->
    <title>icon_closed_eye</title>
    <desc>Created with Sketch.</desc>
    <defs></defs>
    <g id="Page-2" stroke="none" stroke-width="1" fill="none" fill-rule="evenodd">
        <g id="7" transform="translate(-193.000000, -1717.000000)" fill="#FFFFFF">
            <g id="icon_closed_eye" transform="translate(234.500000, 1735.000000) rotate(180.000000) translate(-234.500000, -1735.000000) translate(193.000000, 1717.000000)">
                <g id="Group" transform="translate(12.000000, 16.000000)">
                    <path d="M-5.68434189e-14,19.862379 C-5.68434189e-14,19.862379 10.3573425,0 29.9997497,0 C50.405066,0 60,19.862379 60,19.862379 C60,19.862379 -5.68434189e-14,19.862379 -5.68434189e-14,19.862379 Z" id="Fill-1"></path>
                </g>
                <g id="eyebrows">
                    <polygon id="Fill-1" points="42 9 44 9 44 0 42 0"></polygon>
                    <polygon id="Fill-2" points="74 28.2719253 75.1415413 30 83 24.7280747 81.8584587 23"></polygon>
                    <polygon id="Fill-3" points="60.7186992 16 59 14.8512832 64.2813008 7 66 8.14820119"></polygon>
                    <polygon id="Fill-4" points="0 24.6289687 7.77850049 30 9 28.3710313 1.22045415 23"></polygon>
                    <polygon id="Fill-5" points="22.1759657 16 17 8.07070193 18.8240343 7 24 14.9292981"></polygon>
                </g>
            </g>
        </g>
    </g>
</svg>