<?xml version="1.0" encoding="UTF-8"?>
<svg width="163px" height="20px" viewBox="0 0 163 20" version="1.1" xmlns="http://www.w3.org/2000/svg" xmlns:xlink="http://www.w3.org/1999/xlink">
    <!-- Generator: Sketch 51.1 (57501) - http://www.bohemiancoding.com/sketch -->
    <title>tomorrow logo</title>
    <desc>Created with Sketch.</desc>
    <defs></defs>
    <g id="Page-2" stroke="none" stroke-width="1" fill="none" fill-rule="evenodd">
        <g id="7" transform="translate(-135.000000, -113.000000)" fill="#6B9ADB">
            <g id="tomorrow-logo" transform="translate(135.000000, 113.000000)">
                <polygon id="Fill-21" points="154.281293 18.9457646 154.214358 18.9457646 151.028082 6 146.039711 6 142.928952 18.9843877 142.856868 18.9843877 139.426022 6 134 6 138.340475 20 146.51083 20 148.424484 12.2867891 148.493993 12.2867891 150.497751 20 158.682695 20 163 6 157.719862 6"></polygon>
                <path d="M127.006615,19.7643077 C126.955159,19.8513326 126.885988,19.9175077 126.831158,20 L132.191041,20 C132.230687,19.8993775 132.288892,19.8159787 132.323477,19.7126367 C132.778991,18.4417115 133,17.0166798 133,15.4339155 C133,13.8511513 132.778991,12.425213 132.323477,11.1325316 C131.874711,9.84710219 131.236148,8.7475071 130.409474,7.84825044 C129.581113,6.94264821 128.578139,6.24101046 127.403925,5.74243065 C126.235615,5.25110292 124.928121,5 123.483129,5 C122.040668,5 120.742452,5.25110292 119.576674,5.74243065 C118.421861,6.24101046 117.423104,6.94264821 116.5939,7.84825044 C115.764695,8.7475071 115.122758,9.84710219 114.671462,11.1325316 C114.227757,12.425213 114,13.8511513 114,15.4339155 C114,17.0166798 114.227757,18.4417115 114.671462,19.7126367 C114.708578,19.8159787 114.764251,19.8993775 114.803055,20 L120.169686,20 C120.114855,19.9175077 120.043998,19.8513326 119.994228,19.7643077 C119.651749,19.1641989 119.412183,18.4888499 119.265406,17.7319152 C119.124534,16.984952 119.051989,16.2171391 119.051989,15.4266634 C119.051989,14.6352813 119.124534,13.8611229 119.265406,13.0914969 C119.412183,12.3291231 119.651749,11.6519611 119.994228,11.0672629 C120.339238,10.4843778 120.794752,10.0039282 121.355709,9.63135312 C121.925946,9.26331057 122.631149,9.07656977 123.483129,9.07656977 C124.332579,9.07656977 125.046217,9.26331057 125.624045,9.63135312 C126.206935,10.0039282 126.664136,10.4843778 127.006615,11.0672629 C127.349094,11.6519611 127.591192,12.3291231 127.734594,13.0914969 C127.87884,13.8611229 127.948011,14.6352813 127.948011,15.4266634 C127.948011,16.2171391 127.87884,16.984952 127.734594,17.7319152 C127.591192,18.4888499 127.349094,19.1641989 127.006615,19.7643077" id="Fill-18"></path>
                <path d="M102,5.53033966 L102,20 L107.116438,20 L107.116438,16.3828116 C107.116438,15.4934727 107.197774,14.6630606 107.364726,13.8997341 C107.530822,13.1345945 107.817637,12.4673637 108.211473,11.8926024 C108.609589,11.3178412 109.131849,10.8672791 109.784247,10.5345703 C110.435788,10.2073009 111.226884,10.0359604 112.161815,10.0359604 C112.47774,10.0359604 112.798801,10.0604376 113.140411,10.0930739 C113.473459,10.1329626 113.762842,10.1791974 114,10.2335912 L114,5.19037834 C113.596747,5.06073976 113.219178,5 112.884418,5 C112.238014,5 111.610445,5.10334824 111.010274,5.30460534 C110.409247,5.5094887 109.84161,5.79233652 109.310788,6.16402756 C108.784247,6.53027922 108.316781,6.97721504 107.907534,7.50392844 C107.499144,8.02338934 107.171233,8.59271123 106.934932,9.20101535 L106.864726,9.20101535 L106.864726,5.53033966 L102,5.53033966 Z" id="Fill-15"></path>
                <path d="M89,5.53033966 L89,20 L94.1078942,20 L94.1078942,16.3828116 C94.1078942,15.4934727 94.1926121,14.6630606 94.3620481,13.8997341 C94.528061,13.1345945 94.8147329,12.4673637 95.2143621,11.8926024 C95.6062897,11.3178412 96.1317122,10.8672791 96.7769379,10.5345703 C97.4290095,10.2073009 98.2257006,10.0359604 99.1601654,10.0359604 C99.4690865,10.0359604 99.7968338,10.0604376 100.133138,10.0930739 C100.467732,10.1329626 100.760394,10.1791974 101,10.2335912 L101,5.19037834 C100.588391,5.06073976 100.217001,5 99.880696,5 C99.2329031,5 98.6056479,5.10334824 98.003209,5.30460534 C97.4076161,5.5094887 96.8376952,5.79233652 96.3122727,6.16402756 C95.78086,6.53027922 95.3136276,6.97721504 94.9045853,7.50392844 C94.4904086,8.02338934 94.1720744,8.59271123 93.9324681,9.20101535 L93.8640091,9.20101535 L93.8640091,5.53033966 L89,5.53033966 Z" id="Fill-12"></path>
                <path d="M78.8356718,20 L84.1934997,20 C84.2323062,19.8993775 84.2896723,19.8159787 84.325948,19.7126367 C84.7772844,18.4417115 85,17.0166798 85,15.4339155 C85,13.8511513 84.7772844,12.425213 84.325948,11.1325316 C83.8796732,9.84710219 83.2351479,8.7475071 82.4075571,7.84825044 C81.5841844,6.94264821 80.5828079,6.24101046 79.4084895,5.74243065 C78.2367019,5.25110292 76.9290916,5 75.4839712,5 C74.0388509,5 72.7379895,5.25110292 71.5796998,5.74243065 C70.4163485,6.24101046 69.4225646,6.94264821 68.5941302,7.84825044 C67.7656958,8.7475071 67.1194832,9.84710219 66.674052,11.1325316 C66.2277773,12.425213 66,13.8511513 66,15.4339155 C66,17.0166798 66.2277773,18.4417115 66.674052,19.7126367 C66.7094841,19.8159787 66.7668502,19.8993775 66.8065003,20 L72.1677027,20 C72.1120238,19.9175077 72.0420034,19.8513326 71.9913862,19.7643077 C71.654782,19.1641989 71.4067578,18.4888499 71.2717787,17.7319152 C71.1275198,16.984952 71.0524376,16.2171391 71.0524376,15.4266634 C71.0524376,14.6352813 71.1275198,13.8611229 71.2717787,13.0914969 C71.4067578,12.3291231 71.654782,11.6519611 71.9913862,11.0672629 C72.3347394,10.4843778 72.7919812,10.0039282 73.3647989,9.63135312 C73.923275,9.26331057 74.6319155,9.07656977 75.4839712,9.07656977 C76.3334961,9.07656977 77.0497292,9.26331057 77.6284522,9.63135312 C78.205488,10.0039282 78.6652606,10.4843778 79.0136755,11.0672629 C79.3502797,11.6519611 79.5923985,12.3291231 79.7358139,13.0914969 C79.8800728,13.8611229 79.9492496,14.6352813 79.9492496,15.4266634 C79.9492496,16.2171391 79.8800728,16.984952 79.7358139,17.7319152 C79.5923985,18.4888499 79.3502797,19.1641989 79.0136755,19.7643077 C78.9622147,19.8513326 78.8913507,19.9175077 78.8356718,20 Z" id="Fill-9"></path>
                <path d="M64,20 L64,12.0675692 C64,10.7920343 63.8301751,9.7068778 63.492267,8.80031428 C63.1473918,7.89737701 62.6710111,7.16396712 62.0622541,6.60552399 C61.4465299,6.0461743 60.7158473,5.63822072 59.8597555,5.38075668 C59.0036638,5.12510577 58.0761584,5 57.0746269,5 C55.7491216,5 54.6073756,5.32998912 53.6389381,5.99359362 C52.6765969,6.65175873 51.9093366,7.41689834 51.3537043,8.28085338 C50.8390042,7.06333857 50.0813238,6.21116886 49.0885012,5.72706394 C48.1017748,5.24023933 47.0018319,5 45.8017358,5 C44.5554821,5 43.4433466,5.28012813 42.4757801,5.83857126 C41.5090844,6.4015472 40.6860867,7.1893509 39.9963362,8.20560861 L39.9214391,8.20560861 L39.9214391,5.53033966 L35,5.53033966 L35,20 L40.2192859,20 L40.2192859,13.8235827 C40.2192859,12.8544663 40.3525331,12.0702889 40.6233821,11.4755832 C40.8907475,10.8709054 41.2147212,10.4158105 41.5953032,10.0976067 C41.9732725,9.78212257 42.3686597,9.56182763 42.7692724,9.44850719 C43.1768522,9.33337363 43.5008259,9.27263387 43.7411934,9.27263387 C44.573771,9.27263387 45.2095258,9.42312341 45.6406198,9.70959749 C46.0630049,10.0078569 46.3686898,10.3976792 46.5533199,10.8772513 C46.7344665,11.3649825 46.8441995,11.8926024 46.8685846,12.4673637 C46.8886153,13.0403119 46.9042914,13.6214191 46.9042914,14.2034329 L46.9042914,20 L52.1235773,20 L52.1235773,14.2868367 C52.1235773,13.6712801 52.1618968,13.0666022 52.2481156,12.4673637 C52.3334635,11.8654055 52.506772,11.3323462 52.7654284,10.8600266 C53.0171176,10.3868004 53.3680891,10.0078569 53.8226974,9.70959749 C54.2746929,9.42312341 54.866032,9.27263387 55.6001982,9.27263387 C56.3317517,9.27263387 56.9108982,9.39955276 57.3393796,9.65611024 C57.76699,9.9153874 58.0944473,10.2553487 58.3139133,10.6914058 C58.5246704,11.1238366 58.6587886,11.6342318 58.7153969,12.2207784 C58.7571999,12.8046053 58.7868104,13.428321 58.7868104,14.0882993 L58.7868104,20 L64,20 Z" id="Fill-7"></path>
                <path d="M24.9992011,19.7643077 C24.9494474,19.8513326 24.879455,19.9175077 24.8237983,20 L30.1862323,20 C30.2250233,19.8993775 30.2823665,19.8159787 30.3177844,19.7126367 C30.767254,18.4417115 31,17.0166798 31,15.4339155 C31,13.8511513 30.767254,12.425213 30.3177844,11.1325316 C29.8716879,9.84710219 29.2324797,8.7475071 28.4018463,7.84825044 C27.5695264,6.94264821 26.5736097,6.24101046 25.40482,5.74243065 C24.2309707,5.25110292 22.9247259,5 21.4801829,5 C20.0347965,5 18.7403577,5.25110292 17.577471,5.74243065 C16.4112112,6.24101046 15.4220407,6.94264821 14.593094,7.84825044 C13.7616173,8.7475071 13.1224091,9.84710219 12.6788425,11.1325316 C12.22094,12.425213 12,13.8511513 12,15.4339155 C12,17.0166798 12.22094,18.4417115 12.6788425,19.7126367 C12.7151036,19.8159787 12.7716036,19.8993775 12.8095513,20 L18.1660823,20 C18.1121122,19.9175077 18.0421197,19.8513326 17.9915228,19.7643077 C17.6491501,19.1641989 17.4079712,18.4888499 17.2662998,17.7319152 C17.1280014,16.984952 17.0537926,16.2171391 17.0537926,15.4266634 C17.0537926,14.6352813 17.1280014,13.8611229 17.2662998,13.0914969 C17.4079712,12.3291231 17.6491501,11.6519611 17.9915228,11.0672629 C18.3347388,10.4843778 18.7884248,10.0039282 19.3593271,9.63135312 C19.9201101,9.26331057 20.6335271,9.07656977 21.4801829,9.07656977 C22.3344281,9.07656977 23.0419422,9.26331057 23.6212774,9.63135312 C24.2022991,10.0039282 24.6602015,10.4843778 24.9992011,11.0672629 C25.344947,11.6519611 25.5894989,12.3291231 25.7303271,13.0914969 C25.8686254,13.8611229 25.9470507,14.6352813 25.9470507,15.4266634 C25.9470507,16.2171391 25.8686254,16.984952 25.7303271,17.7319152 C25.5894989,18.4888499 25.344947,19.1641989 24.9992011,19.7643077" id="Fill-4"></path>
                <path d="M8.33735628,20 C8.27908305,19.718122 8.24480468,19.3837809 8.24480468,18.980971 L8.24480468,9.37666726 L12,9.37666726 L12,5.81806865 L8.24480468,5.81806865 L8.24480468,0 L3.10904806,0 L3.10904806,5.81806865 L0,5.81806865 L0,9.37666726 L3.10904806,9.37666726 L3.10904806,20 L8.33735628,20 Z" id="Fill-1"></path>
            </g>
        </g>
    </g>
</svg>